<svg xmlns="http://www.w3.org/2000/svg" width="965" height="964" viewBox="0 0 965 964" version="1.1"><path d="M 459.500 135.676 C 451.487 136.680, 435.779 140.490, 426.656 143.641 C 335.247 175.222, 261.284 288.306, 244.596 422 C 230.557 534.470, 258.834 650.351, 319.999 731.008 C 330.239 744.511, 354.152 769.297, 365.610 778.285 C 390.181 797.558, 418.492 811.276, 445.500 816.996 C 458.276 819.702, 482.972 820.727, 495.500 819.072 C 586.083 807.105, 669.328 713.585, 701.451 587.704 C 734.273 459.081, 705.865 312.720, 629.693 218 C 592.567 171.834, 545.615 142.472, 498.678 136.067 C 491.398 135.074, 466.303 134.823, 459.500 135.676 M 468.500 145.611 C 443.278 148.092, 420.602 156.314, 398.835 170.869 C 308.440 231.315, 256.736 384.905, 274.572 540 C 285.551 635.474, 323.869 720.728, 376.890 767.653 C 432.316 816.706, 498.922 822.839, 557.500 784.283 C 648.703 724.254, 700.826 569.787, 681.933 415.522 C 668.468 305.572, 621.779 214.038, 556.988 170.565 C 540.415 159.445, 521.503 151.526, 503.039 147.974 C 493.319 146.105, 475.721 144.900, 468.500 145.611 M 371.085 275 L 371.107 323.500 375.373 311.500 C 384.639 285.433, 389.994 275.848, 400.839 265.911 C 412.583 255.149, 429.606 248.846, 442.555 250.464 C 447.768 251.115, 462 257.283, 462 258.891 C 462 259.305, 459.498 262.761, 456.439 266.572 C 450.246 274.289, 442.492 286.410, 435.624 299.112 C 424.967 318.822, 415.439 346.213, 404.045 389.896 C 392.922 432.541, 390.023 440.547, 380.470 455 C 376.401 461.156, 364.430 473.561, 359 477.249 L 356.500 478.946 360.500 482.216 C 373.583 492.910, 381.522 502.478, 386.961 514.107 C 388.606 517.623, 392.686 530.850, 396.028 543.500 C 407.472 586.822, 411.921 602.515, 417.009 617.500 C 426.245 644.702, 442.877 675.405, 460.255 697.333 L 462.500 700.166 460 702.228 C 452.419 708.484, 441.229 710.908, 430.378 708.646 C 414.632 705.363, 400.743 695.576, 391.143 681 C 385.528 672.475, 376.010 652.797, 372.054 641.536 C 370.322 636.606, 368.701 632.368, 368.453 632.119 C 368.204 631.870, 368 653.386, 368 679.932 L 368 728.198 375.335 721.348 C 390.125 707.535, 397.277 705.903, 411.789 713.027 C 424.497 719.266, 427.572 720.133, 439.074 720.724 C 451.473 721.360, 460.416 720.042, 470.646 716.070 L 477.839 713.277 483.669 716.023 C 492.265 720.072, 499.254 721.438, 511 721.363 C 523.472 721.283, 531.439 719.529, 544.318 714.027 C 549.986 711.605, 555.310 710, 557.675 710 C 565.294 710, 575.507 717.249, 583.741 728.500 L 585.937 731.500 585.968 685.332 C 585.986 659.939, 586.273 638.452, 586.607 637.582 C 586.941 636.712, 586.826 636, 586.352 636 C 585.878 636, 583.716 641.255, 581.548 647.678 C 579.379 654.101, 575.158 664.338, 572.167 670.428 C 567.506 679.918, 565.569 682.657, 558.614 689.597 C 552.230 695.968, 548.688 698.578, 542 701.839 C 525.464 709.901, 509.283 709.488, 497.563 700.705 C 495.698 699.308, 495.815 699.015, 500.685 692.877 C 512.354 678.170, 525.455 655.157, 533.066 636 C 539.492 619.825, 544.488 603.789, 551.602 576.500 C 564.933 525.361, 567.544 517.739, 576.428 504.005 C 582.154 495.154, 588.742 487.985, 596.286 482.396 C 601.709 478.378, 601.942 478.039, 599.996 476.998 C 595.561 474.624, 584.055 463.847, 579.532 457.831 C 570.370 445.642, 568.792 441.535, 558.920 404.158 C 545.631 353.843, 539.429 334.340, 531.016 316.398 C 521.958 297.083, 508.819 275.099, 499.477 263.631 L 494.983 258.114 498.297 255.587 C 510.593 246.209, 524.969 245.910, 543 254.660 C 559.916 262.868, 574.311 283.581, 586.585 317.372 L 589.900 326.500 589.950 278.075 L 590 229.650 584.250 235.448 C 573.377 246.411, 564.718 250.623, 556.740 248.830 C 554.619 248.354, 549.309 246.167, 544.940 243.970 C 534.675 238.809, 526.881 237.033, 514.410 237.015 C 503.780 236.999, 493.746 238.986, 484.694 242.899 L 479.888 244.977 475.151 242.577 C 466.162 238.022, 459.323 236.571, 447 236.605 C 433.509 236.643, 426.133 238.226, 412.682 243.973 C 407.014 246.395, 401.690 248, 399.325 248 C 391.706 248, 381.493 240.751, 373.259 229.500 L 371.063 226.500 371.085 275 M 474.391 288.750 C 455.470 329.956, 442.208 380.778, 436.487 434 C 434.249 454.824, 433.491 491.391, 434.911 510 C 438.342 554.950, 448.378 601.694, 463.661 643.905 C 468.516 657.316, 477.823 678, 479.002 678 C 479.990 678, 487.225 662.203, 492.569 648.375 C 517.589 583.640, 528.920 499.499, 521.520 433.400 C 515.871 382.946, 501.301 327.495, 483.773 289.750 C 481.538 284.938, 479.314 281, 478.830 281 C 478.346 281, 476.348 284.488, 474.391 288.750" stroke="none" fill="#fbf9f9" fill-rule="evenodd"/><path d="M 446 4.619 C 414.066 7.338, 390.697 11.035, 364.160 17.568 C 291.830 35.373, 225.909 69.405, 168.361 118.649 C 153.824 131.089, 125.480 159.818, 113.753 174 C 49.415 251.806, 12.598 342.808, 4.937 442.964 C 3.399 463.083, 4.249 511.671, 6.470 530.500 C 11.514 573.272, 21.756 614.165, 37.183 653.136 C 47.937 680.302, 70.302 722.696, 86.965 747.500 C 119.402 795.785, 165.034 841.600, 214.500 875.549 C 239.748 892.876, 277.939 913.133, 306.500 924.347 C 385.067 955.195, 467.907 964.851, 551.500 952.904 C 689.690 933.156, 814.085 851.287, 888.250 731.277 C 938.444 650.057, 963.137 553.958, 958.172 459.161 C 956.314 423.695, 952.612 398.431, 944.520 366 C 913.422 241.366, 831.765 133.729, 719 68.730 C 702.444 59.187, 671.126 44.202, 652 36.673 C 613.154 21.380, 573.946 11.629, 530.500 6.456 C 517.241 4.878, 458.072 3.591, 446 4.619 M 459.500 135.676 C 451.487 136.680, 435.779 140.490, 426.656 143.641 C 335.247 175.222, 261.284 288.306, 244.596 422 C 230.557 534.470, 258.834 650.351, 319.999 731.008 C 330.239 744.511, 354.152 769.297, 365.610 778.285 C 390.181 797.558, 418.492 811.276, 445.500 816.996 C 458.276 819.702, 482.972 820.727, 495.500 819.072 C 586.083 807.105, 669.328 713.585, 701.451 587.704 C 734.273 459.081, 705.865 312.720, 629.693 218 C 592.567 171.834, 545.615 142.472, 498.678 136.067 C 491.398 135.074, 466.303 134.823, 459.500 135.676 M 468.500 145.611 C 443.278 148.092, 420.602 156.314, 398.835 170.869 C 308.440 231.315, 256.736 384.905, 274.572 540 C 285.551 635.474, 323.869 720.728, 376.890 767.653 C 432.316 816.706, 498.922 822.839, 557.500 784.283 C 648.703 724.254, 700.826 569.787, 681.933 415.522 C 668.468 305.572, 621.779 214.038, 556.988 170.565 C 540.415 159.445, 521.503 151.526, 503.039 147.974 C 493.319 146.105, 475.721 144.900, 468.500 145.611 M 371.085 275 L 371.107 323.500 375.373 311.500 C 384.639 285.433, 389.994 275.848, 400.839 265.911 C 412.583 255.149, 429.606 248.846, 442.555 250.464 C 447.768 251.115, 462 257.283, 462 258.891 C 462 259.305, 459.498 262.761, 456.439 266.572 C 450.246 274.289, 442.492 286.410, 435.624 299.112 C 424.967 318.822, 415.439 346.213, 404.045 389.896 C 392.922 432.541, 390.023 440.547, 380.470 455 C 376.401 461.156, 364.430 473.561, 359 477.249 L 356.500 478.946 360.500 482.216 C 373.583 492.910, 381.522 502.478, 386.961 514.107 C 388.606 517.623, 392.686 530.850, 396.028 543.500 C 407.472 586.822, 411.921 602.515, 417.009 617.500 C 426.245 644.702, 442.877 675.405, 460.255 697.333 L 462.500 700.166 460 702.228 C 452.419 708.484, 441.229 710.908, 430.378 708.646 C 414.632 705.363, 400.743 695.576, 391.143 681 C 385.528 672.475, 376.010 652.797, 372.054 641.536 C 370.322 636.606, 368.701 632.368, 368.453 632.119 C 368.204 631.870, 368 653.386, 368 679.932 L 368 728.198 375.335 721.348 C 390.125 707.535, 397.277 705.903, 411.789 713.027 C 424.497 719.266, 427.572 720.133, 439.074 720.724 C 451.473 721.360, 460.416 720.042, 470.646 716.070 L 477.839 713.277 483.669 716.023 C 492.265 720.072, 499.254 721.438, 511 721.363 C 523.472 721.283, 531.439 719.529, 544.318 714.027 C 549.986 711.605, 555.310 710, 557.675 710 C 565.294 710, 575.507 717.249, 583.741 728.500 L 585.937 731.500 585.968 685.332 C 585.986 659.939, 586.273 638.452, 586.607 637.582 C 586.941 636.712, 586.826 636, 586.352 636 C 585.878 636, 583.716 641.255, 581.548 647.678 C 579.379 654.101, 575.158 664.338, 572.167 670.428 C 567.506 679.918, 565.569 682.657, 558.614 689.597 C 552.230 695.968, 548.688 698.578, 542 701.839 C 525.464 709.901, 509.283 709.488, 497.563 700.705 C 495.698 699.308, 495.815 699.015, 500.685 692.877 C 512.354 678.170, 525.455 655.157, 533.066 636 C 539.492 619.825, 544.488 603.789, 551.602 576.500 C 564.933 525.361, 567.544 517.739, 576.428 504.005 C 582.154 495.154, 588.742 487.985, 596.286 482.396 C 601.709 478.378, 601.942 478.039, 599.996 476.998 C 595.561 474.624, 584.055 463.847, 579.532 457.831 C 570.370 445.642, 568.792 441.535, 558.920 404.158 C 545.631 353.843, 539.429 334.340, 531.016 316.398 C 521.958 297.083, 508.819 275.099, 499.477 263.631 L 494.983 258.114 498.297 255.587 C 510.593 246.209, 524.969 245.910, 543 254.660 C 559.916 262.868, 574.311 283.581, 586.585 317.372 L 589.900 326.500 589.950 278.075 L 590 229.650 584.250 235.448 C 573.377 246.411, 564.718 250.623, 556.740 248.830 C 554.619 248.354, 549.309 246.167, 544.940 243.970 C 534.675 238.809, 526.881 237.033, 514.410 237.015 C 503.780 236.999, 493.746 238.986, 484.694 242.899 L 479.888 244.977 475.151 242.577 C 466.162 238.022, 459.323 236.571, 447 236.605 C 433.509 236.643, 426.133 238.226, 412.682 243.973 C 407.014 246.395, 401.690 248, 399.325 248 C 391.706 248, 381.493 240.751, 373.259 229.500 L 371.063 226.500 371.085 275 M 474.391 288.750 C 455.470 329.956, 442.208 380.778, 436.487 434 C 434.249 454.824, 433.491 491.391, 434.911 510 C 438.342 554.950, 448.378 601.694, 463.661 643.905 C 468.516 657.316, 477.823 678, 479.002 678 C 479.990 678, 487.225 662.203, 492.569 648.375 C 517.589 583.640, 528.920 499.499, 521.520 433.400 C 515.871 382.946, 501.301 327.495, 483.773 289.750 C 481.538 284.938, 479.314 281, 478.830 281 C 478.346 281, 476.348 284.488, 474.391 288.750" stroke="none" fill="#c40414" fill-rule="evenodd"/></svg>